<svg xmlns="http://www.w3.org/2000/svg" width="66" height="62"><rect width="100%" height="100%" fill="none"/><g class="currentLayer"><path fill="#020101" fill-opacity=".99" d="M0 0h65.748v62.274H0z"/><path fill="#fff" stroke="#fff" stroke-width=".189" d="M3.189 29.416l1.626-6.242s.457-1.942 1.635-2.201c1.178-.26 17.42-.277 22.832 3.912 5.412 4.189 11.037 16.847 23.247 12.655 12.21-4.192 9.68 1.943 8.624 2.95-1.056 1.008-4.893 7.33-12.315 5.293-7.423-2.038-18.869-6.568-21.332-11.463-2.463-4.896-9.316-8.573-12.052-7.148-2.736 1.426-12.265 2.244-12.265 2.244z"/><path fill="#020101" fill-opacity=".99" stroke="#000" stroke-width=".265" d="M22.32 33.131l3.985-3.208L37 37.513l-5.238 4.35zm-1.233-4.325l-.325-.504 5.285-5.378 1.497 1.099-6.477 4.8z"/><path fill="#fff" stroke="#fff" stroke-width=".265" d="M45.165 38.311l1.356.496-1.7 5.168-.819.175-.284-.345z"/><path fill="#fff" fill-opacity=".99" d="M43.937 43.562l.885.413 1.025-5.192-.67-.108z"/><path fill="#020101" fill-opacity=".99" d="M40.219 41.515l4.614-3.974-16.05-14.407-5.075 3.438 11.67 12.535z"/><g><path fill="#840101" stroke="#840101" stroke-width=".265" d="M24.677 58.153l-.721 4.1 17.205-.017-.82-3.653-15.616-.321-.048-.11"/><path fill="#840101" stroke="#840101" stroke-width=".006" d="M29.205 20.51v.018h-.145v.024h-.076v.025h-.048v.018h-.049v.024l-.02.018h-.028v.025h-.048v.018h-.028v.024h-.02v.024h-.028l-.02.019v.024h-.049v.018h-.028v.024h-.027l-.02.018v.025h-.049v.018h-.028v.024h-.02v.024h-.049v.019h-.027v.024h-.028l-.02.018v.024h-.028l-.02.019v.024h-.028v.024l-.02.018h-.028v.025h-.028l-.02.018v.042h-.028v.025h-.021v.042h-.028v.024h-.02v.043h-.028v.042l-.02.018h-.028v.049h-.028v.042h-.02v.043h-.028v.042h-.02v.043h-.028v.042h-.02v.025h-.028v.042h-.028l-.02.018v.025h-.028l-.021.018v.024h-.028v.024h-.02v.043h-.028l-.02.018v.024h-.028v.018h-.028v.049l-.02.018h-.028v.043h-.02v.024h-.028l-.02.018v.043h-.028v.024h-.028v.024l-.02.018h-.028v.025l-.021.018h-.028v.024l-.02.018h-.028v.025h-.02v.042h-.028v.024h-.028l-.02.018v.025h-.028l-.02.018v.042h-.028v.049h-.02v.042h-.028v.043h-.028v.042h-.02v.067h-.028l-.021.018v.043h-.028v.024h-.02v.043h-.028v.024l-.02.018h-.028v.024h-.028l-.02.018v.043h-.028v.024h-.02v.043h-.028v.042h-.02v.043h-.028v.042h-.021v.049h-.028v.06h-.027v.043h-.02v.042h-.029v.025h-.02v.042h-.028v.024h-.02v.043h-.028v.018h-.028v.049l-.02.018h-.028v.066h-.02v.061h-.028v.091h-.02v.11h-.028v.06h-.021v.042h-.028v.043h-.027v.048h-.02v.043h-.029v.042h-.02v.043h-.028v.042h-.02v.043h-.028v.042h-.028v.025l-.02.018h-.028v.048l-.02.019h-.028v.024h-.048l-.021.018v.024h-.028v.018h-.048v.025h-.028v.024h-.048l-.02.018v.024h-.056l-.02.019v.024h-.028l-.02.018v.024h-.028v.043h-.02v.024h-.028v.043l-.021.018h-.028v.042H25.4v.025h-.02v.042h-.029v.024l-.02.019h-.028v.024l-.02.018h-.028v.042h-.028v.025h-.02v.024h-.028v.042h-.02v.043h-.028v.042h-.02v.067h-.028v.28h.027v.066h.02v.042h.028l.021.019v.024h.028l.02.018v.024h.056v.025h.048v.018h.048v.024h.076v.018h.069v.025h.048v.018h.028v.024h.048v.018h.028v.024h.048v.025l.02.018h.049v.024h.027v.018h.049v.025h.027v.018h.049v.024h.048v.024l.02.019h.056v.024l.02.018h.049v.024h.027v.019h.048v.024h.028v.018h.048v.024h.049v.025h.048v.018h.076v.024h.096v.018h.097v.024h.124v.019h.096v.024h.076v.024h.07v.018h.027v.025h.048v.018h.048v.024h.028l.02.018v.025h.056l.02.018v.024h.049v.024h.027v.018h.048v.025h.049v.018h.048v.024h.028v.018h.048v.025h.048v.018h.048v.024h.049v.024h.096v.019h.152v.024h.172v.018h.097v.024h.096v.018h.104v.025h.069v.024h.048v.018h.048v.024h.028v.019h.048v.024h.028l.02.018v.024h.028v.019h.048v.024h.02v.024h.028v.018h.028v.025l.02.018h.028v.024h.173v.018h.096v.024h.048v.025h.049v.018h.048v.024h.048v.018h.055v.025h.049v.018h.069v.024h.103v.018h.586v-.018h.097v-.024h.048v-.018h.055v-.025l.02-.018h.049v-.024h.028l.02-.018v-.025h.028v-.024h.027v-.042l.021-.018h.028v-.043h.02v-.024h.028v-.043h.02v-.042h.028v-.067h.02v-.042h.029v-.043h.027v-.042h.02v-.043h.028v-.048l.021-.019h.028v-.024l.02-.018h.028v-.043h.02v-.024h.028v-.018h.028v-.024h.02v-.025h.028l.02-.018v-.024h.028l.021-.018v-.024h.028v-.019h.027v-.041h.02v-.024h.028v-.043h.021v-.042h.028v-.025h.02v-.042h.028v-.043h.02v-.042h.028v-.024h.028v-.043h.02v-.042h.028v-.025h.02v-.042h.028l.021-.018v-.045h.028v-.024h.027v-.024h.02v-.043h.028l.021-.018v-.024h.028v-.043l.02-.018h.028v-.024h.02v-.043h.028v-.024h.028l.02-.018v-.043h.028v-.024h.02v-.042h.028v-.043h.021v-.024h.028v-.042h.027v-.043h.02v-.042h.029v-.025h.02v-.042h.028v-.043h.02v-.024h.028v-.042l.02-.019h.028v-.042h.028v-.043h.02v-.048h.028v-.043h.02v-.06h.028v-.043h.021v-.048h.028v-.043h.027v-.042h.021v-.043h.028v-.042h.02v-.024h.028v-.043l.02-.018h.028v-.043h.02v-.024h.028v-.024h.028l.02-.018v-.043h.028v-.024l.02-.018h.029v-.025h.02v-.024h.028l.02-.018v-.024h.028v-.043h.028l.02-.018v-.042h.028v-.049h.02v-.042h.028v-.043h.02v-.042h.028v-.043h.028v-.042h.02v-.043h.028v-.042h.021v-.049h.028v-.06h.02v-.067h.028v-.067h.02v-.085h.028v-.042h.028v-.043h.02v-.042h.028v-.043h.02v-.048h.028l.02-.019v-.042h.029v-.024h.027v-.043h.02v-.042h.028v-.067h.021v-.17h-.02v-.042h-.028v-.043h-.02v-.024h-.028v-.024h-.028v-.019h-.048v-.024l-.021-.018h-.048v-.024h-.028v-.019h-.048v-.024h-.028l-.02-.018v-.024h-.028v-.025l-.02-.018h-.028v-.024l-.021-.018h-.028v-.025h-.027l-.02-.018v-.024h-.028v-.024l-.021-.018h-.028v-.025l-.02-.018h-.028v-.024h-.028v-.018h-.048v-.025l-.02-.018h-.028v-.024h-.02v-.024h-.028v-.019h-.049v-.024h-.027l-.02-.018v-.024h-.05v-.018h-.027v-.025h-.048v-.024l-.02-.018h-.028v-.024h-.028v-.043l-.02-.018h-.03v-.024h-.02v-.043h-.028v-.024l-.021-.018h-.028v-.043h-.027v-.024l-.02-.018h-.028v-.025h-.049v-.024l-.02-.018h-.028v-.024h-.048v-.017h-.049v-.025h-.048v-.018h-.048v-.024h-.055v-.018h-.07v-.025h-.047v-.024h-.049v-.018h-.027v-.024h-.049v-.019h-.048v-.024h-.027l-.021-.018v-.024h-.055l-.021-.018v-.025h-.048v-.024h-.049v-.018h-.027v-.024h-.048v-.019h-.049v-.024h-.027v-.018h-.048v-.024h-.021v-.025h-.055v-.018h-.049v-.024l-.02-.018h-.049v-.025h-.048v-.018h-.055v-.024l-.02-.018h-.049v-.025h-.028v-.024h-.048l-.02-.018v-.024h-.056l-.02-.018v-.025h-.049v-.018h-.048v-.023h-.076v-.024h-.096v-.019h-.076v-.024h-.076v-.018h-.069v-.024h-.055l-.02-.019v-.024h-.028v-.018h-.049v-.024h-.02v-.025h-.028l-.02-.018v-.024h-.028v-.018h-.028v-.024h-.048l-.02-.019v-.024h-.077v-.024h-.144v-.018h-.276zm5.157 2.785v.024h-.07v.018h-.047v.025h-.028v.024l-.02.018h-.028v.043h-.028v.024l-.02.018h-.028v.024h-.048v.025h-.049v.018h-.22v.024H33.7v.018h-.048v.024l-.021.019h-.028v.024h-.027v.042h-.021v.025h-.028v.06h-.02v.043h-.028v.048h-.02v.043h-.028l-.02.018v.043h-.028v.042h-.028v.049l-.02.018h-.028v.042h-.02v.043h-.029v.024h-.02v.024h-.028v.043h-.027l-.021.018v.024h-.028v.043h-.02v.042h-.028v.024h-.02v.043h-.028v.042h-.02v.043h-.028v.024h-.028v.043l-.02.018h-.028v.042h-.021v.043h-.028v.048h-.02v.061h-.028v.042h-.027v.049h-.021v.06h-.028v.043h-.02v.043h-.028v.048l-.02.018h-.028v.043h-.02v.024h-.029v.043h-.027v.042h-.02v.043h-.028v.024H32.5v.042h-.028l-.02.019v.048h-.028l-.02.018v.025h-.028v.042h-.028l-.02.018v.024H32.3l-.02.019v.024h-.028v.042h-.021v.025h-.028v.018h-.027v.042h-.02v.049h-.028v.042l-.021.019h-.028v.042h-.02v.043h-.028v.024h-.02v.042h-.028v.043h-.028v.042h-.02v.049h-.028v.042h-.02v.06h-.028v.043h-.021v.049h-.028v.042h-.027v.043l-.02.018h-.028v.024h-.021v.025h-.028l-.02.018v.024h-.028l-.02.018v.043h-.028v.024h-.028l-.02.018v.024h-.028v.025l-.02.018h-.028v.024h-.021v.043h-.028v.018h-.027v.042h-.02v.025h-.029v.042h-.02v.043h-.028v.066h-.02v.043h-.028v.067h-.02v.042h-.028v.042h-.028v.043h-.02v.024h-.028v.043h-.02v.042h-.028v.043h-.021v.066h-.028v.11h-.027v.127h.027v.11h.028v.06h.02v.024h.028v.043h.02v.024h.028l.021.018v.024h.055v.019h.048v.024h.07v.024h.172v.018h.172v.025h.076v.018h.048v.024h.049v.018h.027v.024h.048l.021.019v.024h.055v.024l.02.018h.05v.025h.027v.018h.048v.024h.048v.018h.049v.025h.027v.024h.048v.018h.049v.024h.027v.019h.07v.024h.048v.018h.075v.024h.076v.018h.07v.025h.075v.024h.076v.018h.048v.024h.076l.02.019v.024h.049v.018h.048v.024h.028v.019h.048v.024h.048v.024h.049v.018h.048v.025h.027v.018h.049v.024h.027v.018h.049v.024h.02v.025h.049v.018h.027v.024h.048v.018h.049v.025h.048v.018h.076v.024h.076v.018h.069v.025h.075v.024h.076v.018h.076v.024h.048v.018h.049v.025l.02.018h.028v.024h.048v.024h.028l.02.019v.024h.028l.02.018v.043h.028v.024h.021v.042h.028v.11h.027v.345h-.027v.128h-.028v.085h-.02v.09h-.028v.086h-.021v.066h-.028v.043h-.02v.042h-.028v.043h-.027v.042h-.021v.067h-.028v.043h-.02v.151h-.028v.54h-.02v.11h-.028v.084h-.02v.237h.02v.043h.027v.024l.021.018h.048v.024h.104v-.024h.096v-.018h.049v-.024h.048v-.019h.048v-.024h.028v-.018h.048v-.024h.048v-.025h.028v-.018h.048v-.024l.02-.018h.028v-.025l.021-.018h.048v-.024h.028v-.018h.027v-.024h.021v-.025h.028l.02-.018v-.024h.028l.02-.018v-.025h.028v-.018h.028v-.024h.02v-.024h.028l.02-.019v-.024h.028l.021-.018v-.024h.028l.02-.019v-.024h.028v-.018h.027v-.024h.021v-.025h.028l.02-.018v-.024h.028l.02-.018v-.024h.028v-.019h.028v-.024h.048v-.024l.02-.018h.05v-.025h.027v-.018h.048v-.024h.048v-.018h.028v-.025h.048l.02-.018v-.024h.056v-.024l.02-.018h.028v-.025l.02-.018h.028v-.024h.021v-.043h.028v-.024h.02v-.042h.028v-.019h.028v-.042h.02v-.043h.028v-.024h.02v-.042h.028v-.025h.02v-.042h.028v-.018h.028v-.024h.02v-.043h.028v-.024l.02-.018h.029v-.043h.02v-.024h.028v-.043h.02v-.042h.028v-.024h.028v-.043l.02-.018h.028v-.024l.02-.019h.028v-.024h.02v-.024h.028l.021-.018v-.025h.028v-.018h.027v-.024l.021-.018h.028v-.024h.02v-.043h.028v-.024l.02-.018h.028v-.025h.028l.02-.018v-.042h.028v-.025h.02v-.042h.028v-.043h.02v-.042h.029v-.067h.02v-.066h.028v-.061h.027v-.049l.021-.018h.028v-.042h.02v-.025h.028l.02-.018v-.024h.028v-.024h.028l.02-.019v-.024h.028l.02-.018v-.024h.028l.021-.019v-.024h.028l.02-.018v-.024h.028v-.024h.027v-.043l.021-.018h.028v-.024h.02v-.043h.028v-.024h.02v-.043h.028v-.06h.028v-.043h.02v-.067h.028v-.042h.02v-.043h.028v-.042h.021v-.049h.028l.02-.018v-.024h.028v-.018h.027v-.024l.021-.019h.028v-.024h.02v-.024h.028l.02-.018v-.043h.028v-.024h.028l.02-.018v-.025h.028l.02-.018v-.024h.028v-.043h.021v-.024h.028v-.042l.02-.018h.028v-.067h.028v-.043h.02v-.042h.028v-.067h.02v-.042h.028v-.043h.02v-.042h.028v-.025h.028v-.024l.02-.018h.028v-.043h.02v-.024h.028l.02-.018v-.024h.029l.02-.018v-.049h.028v-.06h.027v-.237h.021v-.11h.028v-.042h.02v-.067h.028v-.042h.02v-.043h.028v-.042h.02v-.067h.028v-.085h.028v-.09h.02v-.086h.028v-.066h.02v-.103h.028v-.109h.02v-.218h-.02v-.043h-.027v-.042h-.02v-.025h-.029v-.042l-.02-.018h-.055v-.025l-.021-.018h-.028v-.024h-.02v-.024h-.049v-.018h-.027v-.025l-.02-.018h-.056v-.024l-.02-.018h-.028v-.025h-.048l-.021-.018v-.024h-.048v-.024h-.056v-.019h-.048v-.024h-.048v-.018h-.048v-.024h-.028v-.018h-.048v-.025h-.02v-.024h-.028v-.018h-.049v-.024l-.02-.019h-.028v-.024h-.028l-.02-.018v-.024h-.028l-.02-.019v-.024h-.028v-.024l-.02-.018h-.028v-.025h-.028l-.02-.018v-.024h-.028l-.02-.018v-.024h-.029l-.02-.019v-.024h-.028v-.024l-.02-.018h-.028v-.025h-.028l-.02-.018v-.024h-.028v-.018h-.048v-.025h-.02v-.024h-.028v-.018h-.049v-.024h-.027l-.021-.019v-.024h-.048v-.018h-.028v-.024l-.02-.018h-.056v-.025h-.02v-.024h-.028l-.02-.018v-.024h-.028l-.021-.019v-.024h-.055l-.02-.018v-.026h-.028v-.025h-.049v-.018h-.048v-.024h-.048v-.018h-.049v-.025h-.048v-.018h-.048v-.024h-.055v-.018h-.048v-.024h-.049v-.025h-.048v-.018h-.048v-.024h-.076v-.018h-.097v-.025h-.076v-.018h-.068v-.024h-.049v-.024h-.055v-.019h-.048v-.024h-.048l-.021-.018v-.024h-.048v-.018h-.056v-.025h-.048v-.018h-.048v-.024h-.048v-.024h-.049v-.019h-.048v-.024h-.027v-.018h-.049v-.024l-.02-.019h-.028v-.024h-.048v-.024h-.028v-.018h-.048v-.025l-.02-.018h-.056v-.023l-.02-.018h-.049v-.024h-.076v-.019h-.048v-.024h-.097v-.024h-.103v-.018h-.097v-.025h-.048v-.018h-.048v-.024h-.048v-.018h-.049v-.025h-.048v-.024h-.076v-.018h-.096v-.024h-.104zM23.73 25.758v.025h-.069v.024h-.055v.018h-.048v.024l-.02.018h-.05v.025h-.027v.018h-.027v.024h-.049l-.02.018v.025h-.028v.024h-.048l-.02.018v.024h-.056l-.02.019v.024h-.028v.018h-.048v.024h-.021v.025h-.028v.018h-.027v.024l-.021.018h-.028v.024l-.02.019h-.028v.024l-.02.018h-.028v.024h-.02v.025h-.028v.018h-.028v.042h-.02v.025h-.028l-.02.018v.048h-.028l-.021.019v.042h-.028v.024l-.02.019h-.028v.024h-.028v.042h-.02v.025h-.028l-.02.018v.024h-.028l-.02.018v.024h-.028v.043h-.028l-.02.018v.049h-.028v.042h-.02v.043h-.028v.066h-.021v.043h-.028v.06h-.02v.025h-.028v.042h-.028v.024l-.02.019h-.028v.024l-.02.018h-.028v.024l-.02.019h-.056v.024h-.02v.024h-.028l-.02.018v.025h-.028l-.021.018v.024h-.028l-.02.018v.043h-.028v.024h-.028v.024h-.02v.043h-.028l-.02.018v.042h-.028v.025h-.02v.024h-.028v.018h-.028v.024l-.02.019h-.028v.042h-.02v.024h-.028l-.021.019v.024h-.028v.042h-.02v.043h-.028v.042h-.027v.049H21.4v.06h-.028v.067h-.02v.043h-.028v.042h-.02v.043h-.028v.042h-.028v.024h-.02v.025H21.2v.042h-.02v.043h-.028v.042h-.021v.043h-.028v.066h-.02v.043h-.028v.06h-.027v.025h-.021v.042h-.028v.024l-.02.019h-.028v.024l-.02.018h-.028v.024h-.028v.025h-.048l-.02.018v.024h-.028l-.021.018v.025h-.028l-.02.018v.042h-.028v.024h-.027v.043h-.021v.067h-.028v.085h-.02v.085h-.028v.09h-.02v.043h-.028v.043l-.02.018h-.029v.024h-.027v.043h-.02v.024h-.028l-.021.018v.024h-.028l-.02.018v.025h-.028v.018h-.027v.024h-.021v.024h-.028l-.02.019v.024h-.028l-.02.018v.024h-.028l-.02.019v.024h-.028v.024h-.028l-.02.018v.043h-.028v.024h-.021v.042h-.028v.043h-.02v.042h-.028v.067h-.027v.06h-.021v.05H19.8v.042h-.02v.042h-.028l-.02.019v.024h-.028v.024l-.02.018h-.028v.025h-.028v.018h-.048v.024l-.021.018h-.028v.024h-.048v.019h-.027v.024h-.021v.024h-.028l-.02.018v.025h-.028l-.02.018v.024h-.028v.043h-.02v.024h-.028v.042h-.028l-.02.019v.042h-.028v.024h-.021v.043h-.028v.024h-.02v.042h-.028v.061h-.027v.049h-.021v.042h-.028v.06h-.02v.025h-.028v.043h-.02v.024h-.028v.042l-.02.019h-.028v.024h-.028l-.02.018v.024h-.028v.043h-.021v.024h-.028l-.02.018v.024h-.028v.043l-.02.018h-.028v.024h-.028v.025h-.02v.042h-.028l-.02.018v.025h-.028l-.02.018v.024h-.028v.024h-.028v.043l-.02.018H18.4v.042h-.021v.043h-.028v.049h-.02v.042h-.028v.042h-.02v.043h-.028v.042h-.028v.043h-.02v.042h-.028v.067h-.02v.219h.02v.06h.028v.219h-.028l-.02.018v.048h-.028l-.02.019v.024h-.028v.018h-.028v.024l-.02.019h-.028v.024h-.02v.024h-.029l-.02.018v.025h-.028l-.02.018v.024h-.028v.018h-.028v.024l-.02.019h-.028v.024h-.02v.024h-.028l-.02.018v.025h-.028v.018h-.028v.024h-.02v.043h-.028v.024l-.02.018h-.029v.024l-.02.018h-.028v.043h-.02v.024h-.028v.043h-.028v.042h-.02v.067h-.028v.06h-.02v.067h-.028v.043h-.02v.067h-.028v.042h-.028v.024h-.02v.06h-.028v.043h-.02v.049h-.029v.042l-.02.019h-.028v.042h-.02v.049h-.028v.018h-.028v.024h-.02v.043H17l-.02.018v.024h-.028v.043h-.02v.024h-.028v.018h-.028v.042h-.02v.025h-.028v.042h-.02v.024h-.028l-.021.019v.042h-.028v.024l-.02.019h-.028v.042h-.028v.049h-.02v.042h-.028v.255h.028v.067h.02v.042h.028v.043h.028v.048l.02.018h.028v.043h.02v.024h.028v.043l.02.018h.028v.024h.021v.043h.028v.024h.027l.02.018v.043h.028v.024H17v.042h.028v.025h.02v.042h.028v.018h.028v.043h.02v.024h.028v.042h.02v.025h.028l.02.018v.024h.028l.021.018v.025h.028v.018h.027v.048l.02.019h.028v.042h.021v.042h.028v.049h.02v.043h.028v.042h.028v.042l.02.019h.028v.024h.02v.042h.028v.025l.02.018h.028v.024l.021.018h.028v.049h.027l.02.018v.043h.028v.042h.021v.024h.028v.043h.02v.042h.028v.043h.028v.042h.02v.024h.028v.043h.02v.024h.028l.02.018v.043h.028v.024l.021.018h.028v.049h.027l.02.018v.024h.028l.021.019v.042h.028v.024h.048v.019h.028v.024h.02v.024h.048v.018h.049v.025h.076v.018h.096v.024h.076v.018h.048v.024h.049v.025h.048v.018h.048v.024h.028v.018h.027v.025l.02.018h.028v.042h.021v.049h.028v.042h.02v.17h.028v.194h.02v.067h.028v.043h.028v.042h.02v.043h.028v.024l.02.018h.028v.024h.021v.025h.028v.018h.027v.024l.02.018h.028v.024h.049l.02.019v.024h.049v.024h.055v.018h.069v.025h.076v.018h.048v.024h.048v.018h.028v.025l.02.018h.028v.024h.02v.042h.028v.043h.028v.042h.02v.067h.028v.085h.02v.067H20v.042h.021v.043h.028v.042h.027v.025h.02v.042h.028v.024h.021v.043h.028l.02.018v.042h.028v.049h.02v.06h.028v.067h.028v.067h.02v.043h.028v.042h.02v.043h.028v.024l.021.018h.028v.043h.027v.042h.02v.024h.028v.043h.021v.067h.028v.06h.02v.067h.028v.042h.02v.043h.028v.042h.028v.025h.02v.024h.028v.042l.02.019h.028v.024l.021.018h.028v.024h.02v.025h.028v.018h.027v.024l.021.018h.028v.043h.02v.024h.028v.042h.02v.025h.028v.042h.028v.043h.02v.042h.028v.043h.02v.042h.028v.024h.021v.043h.028l.02.018v.024h.028v.043h.027v.024l.021.018h.028v.043h.02v.042h.028v.049h.02v.042h.028v.043h.028v.042h.02v.067h.028v.042h.02v.043h.028v.042h.021v.025h.028v.042l.02.018h.028v.025h.027v.042h.021v.024h.028v.019h.048v.024l.02.018h.056v.024h.048v.018h.048v.025h.07v.018h.054v.024h.049v.024h.048v.019h.076v.024h.048v.018h.07v.024h.075v.019h.248v.024h.117v.024h.056l.02.018v.025h.028l.02.018v.176h-.02v.042h-.028v.043h-.02v.066h-.028v.17h.028v.043h.02v.042h.028v.043h.02v.048h.028v.06h.02v.043h.028v.067h.021v.067h.028v.042h.027v.043h.02v.042h.028v.043h.021v.024h.028l.02.018v.049h.028v.018h.027v.024h.021v.043h.028l.02.018v.042h.028v.025h.02v.042h.028v.024h.02v.043h.029v.042h.027v.025h.02v.06h.028v.043h.021v.042h.028v.049l.02.018h.028v.042h.027v.025h.021v.042h.028v.024l.02.019h.028v.024h.02v.042h.028l.02.019v.042h.029v.024h.027v.025h.02v.042h.028l.021.018v.025h.028l.02.018v.042h.028v.024h.027v.025l.021.018h.028v.024l.02.018h.028v.025l.02.018h.028v.024h.02v.024h.028v.019h.028v.024l.02.018h.028v.043h.021v.024h.028l.02.018v.049h.028v.042h.027v.042h.021v.043h.028v.042h.02v.025h.028v.042l.02.018h.028v.043h.02v.024h.028v.043h.028v.024l.02.018h.028v.043h.021v.024h.028v.042h.02v.043h.028v.042h.02v.043h.028v.048h.028v.043l.02.018h.028v.042h.02v.025h.028v.024l.02.018h.028v.024h.028l.02.019v.024h.028l.021.018v.024h.028v.043h.02v.024h.028v.043l.02.018h.028v.042h.028v.049l.02.018h.028v.042h.02v.043h.028v.042h.02v.049h.028v.042h.028v.085h.02v.067h.028v.06h.021v.067h.028v.043h.02v.024h.028v.043l.02.018h.028v.024h.028l.02.018v.025h.028v.024l.02.018h.028v.043h.02v.024h.028v.018h.028v.024h.02v.025h.028v.042l.02.018h.029v.043h.02v.042h.028v.049h.02v.06h.028v.043h.028v.049h.02v.042h.028v.042h.02v.043h.028l.02.018v.049h.028v.042h.028v.043h.02v.085h.028v.564h-.027v.06h-.021v.067h-.028v.043h-.027v.042h-.02v.043h-.028v.066h-.021v.085h-.028v.134h-.02v.11h-.028v.084h-.028v.11h-.02v.43h-.028v.11h-.02v.06h-.028v.042h-.02v.049h-.028v.06h-.021v.043h-.028v.091h-.027v.692h-.02v.236h-.028v.11h-.021v.085h-.028v.17h-.02v.218h-.028v.067h-.028v.06h-.02v.043h-.028v.048h-.02v.043h-.028v.06h-.02v.11h-.028v1.08h-.021v.109h-.028v.109H25.4v.11h-.02v.17h-.028v.108h-.021v.043h-.028v.067h-.02v.042h-.028v.043h-.028v.067h-.02v.06h-.028v.261h-.02v.237h-.028v.09h-.02v.104h-.028v.176h-.021v.194h-.028v.085h-.027v.042h-.02v.043h-.028v.067h-.021v.042h-.028v.067h-.02v.085h-.028v.194h-.027v.11h-.021v.085h-.028v.109h-.02v.127h-.028v.067h-.02v.067h-.028v.042h-.021v.043h-.028v.066h-.027v.043h-.02v.085h-.028v2.184h.027v.067h.02v.042h.028v.043h.028l.02.018v.024h.028l.021.019v.024h.048v.024h.049v.018h.055v.024h.096v.019h.076v.024h.069v.018h.048v.024h.049v.024h.055v.019h.048v.024l.02.018h.049v.024h.055v.018h.048v.025h.07v.018h.172v.024h14.168v-.024h.152v-.018h.048v-.025h.049v-.018h.027v-.024l.02-.018h.028v-.024h.021v-.043h.028v-.067h.02v-.904h.028v-.218h.027v-.067h.021v-.06h.028v-.043h.02v-.048h.028v-.043h.02v-.06h.028v-.134h.02v-2.718h-.02v-.152h-.027v-.09h-.021v-.237h.02v-.085h.028v-.152h.02v-2.682h.029v-.103h.027v-.091h.02v-.127h.028v-1.966h.021v-.085h.028v-.067h.02v-.042h.028v-.043h.02v-.048h.028v-.043h.028v-.06h.02v-.043h.028v-.049h.02v-.06h.028v-.043h.02v-.048h.029v-.019h.027v-.042h.02v-.024h.028l.021-.018v-.025h.028l.02-.018v-.024h.028v-.025h.048v-.018h.028v-.024l.02-.018h.049v-.024h.027l.021-.019v-.024h.028v-.024h.027v-.043l.021-.018h.028v-.024l.02-.018h.028v-.043h.02v-.024h.028v-.024l.02-.019h.028v-.042h.028v-.024l.02-.019h.028v-.024l.021-.018h.028v-.024h.02v-.025h.028v-.018h.027v-.024l.021-.018h.028v-.025l.02-.018h.028v-.024h.02v-.024h.028v-.043l.021-.018h.028v-.042h.027v-.025h.021v-.066h.028v-.085h.02v-.195h.028v-.109h.02v-.042h.028v-.043h.028v-.024l.02-.018h.028v-.025l.021-.018h.028v-.024l.02-.018h.028v-.024l.02-.019h.028v-.024h.028v-.024l.02-.018h.028v-.025l.02-.018h.028v-.024l.021-.018h.028v-.025h.027v-.024l.021-.018h.028v-.024l.02-.019h.028v-.024l.02-.018h.028v-.024l.021-.019h.028v-.024h.027v-.024l.021-.018h.028v-.025l.02-.018h.028v-.042h.02v-.025h.028l.021-.018v-.048h.028v-.018h.027v-.025h.021v-.042h.028l.02-.018v-.025h.028v-.024h.02v-.042h.028v-.019h.028v-.024l.02-.018h.028v-.024l.021-.019h.028v-.024h.02v-.024h.028l.02-.018v-.025h.028v-.018h.028v-.024l.02-.018h.028v-.024h.021v-.043h.028v-.024h.02v-.043h.028v-.042h.028v-.067h.02v-.06h.028v-.067h.02v-.085h.028v-.085h.02v-.134h.028v-.17h.021v-.09h.028v-.061h.027v-.043h.021v-.048h.028l.02-.018v-.043h.028v-.042h.021v-.043h.028v-.048h.027v-.061h.02v-.085h.028v-.152h.021v-.133h.028v-.06h.02v-.05h.028v-.06h.02v-.043h.028v-.048h.028v-.06h.02v-.068h.028v-.085h.021v-.084h.028v-.091h.02v-.128h.028v-.346h.028v-.085h.02v-.066h.028v-.043h.02v-.042h.028v-.043h.021v-.067h.028v-.085h.02v-.151h.028v-.152h.027v-.085h.021v-.11h.028v-.218h.02v-.17h.028v-.066h.02v-.043h.028v-.066h.021v-.061h.028v-.152h-.028v-.066h-.02v-.067h-.028l-.02-.018v-.043h-.028v-.048h-.021v-.043h-.028v-.06h-.02v-.067h-.028v-.28h.027v-.066h.021v-.043h.028v-.024h.02v-.042h.028l.02-.019v-.048h.028l.021-.018v-.043h.028v-.042h.027v-.043h.021v-.048h.028v-.06h.02v-.068h.028v-.066h.02v-.085h.028v-.067h.028v-.06h.02v-.043h.028v-.049h.021v-.042h.028v-.043h.02v-.042h.028l.02-.018v-.049h.028v-.06h.028v-.043h.02v-.091h.028v-.43h.021v-.213h.028v-.067h.02v-.067h.028v-.042h.028v-.043h.02v-.042h.028v-.067h.02v-.152h.028v-.109h-.027v-.127H45.4v-.067h-.028l-.02-.018v-.024h-.028v-.019h-.028v-.024h-.069v-.024h-.103v.024h-.07v.024h-.047v.019h-.028v.024l-.02.018h-.056v.024l-.02.019h-.028v.024h-.021v.024h-.048v.018h-.028v.025h-.027v.018h-.049v.024l-.02.018h-.049v.024h-.048v.019h-.027v.024h-.049v.024h-.027v.018h-.049v.025h-.048v.018h-.048v.024h-.028v-.067h.028v-.066h.027v-.043h.021v-.042h.028v-.043h.02v-.042h.028v-.043h.02v-.042h.028v-.043h.021v-.048h.028v-.043h.027l.021-.018v-.024h.028l.02-.018v-.025h.028v-.018h.048v-.024h.049v-.024h.027v-.019h.049v-.024h.048l.02-.018v-.024h.028v-.019h.048v-.024h.028l.02-.018v-.024h.028v-.025h.02v-.042h.029l.02-.018v-.024h.028v-.043h.027v-.042h.021v-.043h.028v-.041h.02v-.043h.028v-.024h.02v-.043h.029v-.024h.027v-.042l.02-.019h.028v-.024h.021v-.024h.028l.02-.018v-.025h.028l.02-.018v-.024h.028v-.018h.028v-.024l.02-.019h.028v-.024h.021v-.024h.028l.02-.018v-.025h.028v-.018h.028v-.024l.02-.018h.028v-.025h.02v-.024h.028l.021-.018v-.024h.028v-.043l.02-.018h.028v-.024h.028l.02-.018v-.025h.028v-.024l.02-.018h.028v-.024l.021-.019h.028v-.024h.027l.021-.018v-.024h.028v-.025l.02-.018h.028v-.024l.02-.018h.028v-.025h.049v-.018h.027v-.024l.02-.018h.029v-.024h.02v-.025h.028l.02-.018v-.024h.028v-.018h.028v-.025l.02-.018h.028v-.024h.02v-.044h.028v-.024l.021-.018h.028v-.024h.02v-.043h.028v-.018h.028v-.024h.02v-.043h.028v-.024h.02v-.042h.029l.02-.019v-.024h.028l.02-.018v-.024h.028v-.025h.028l.02-.018v-.024h.028l.02-.018v-.043h.028v-.024h.021v-.024h.028v-.019h.027v-.024h.021v-.042h.028l.02-.018v-.043h.028v-.048h.02v-.043h.028v-.06h.021v-.067h.028v-.085h.027v-.134h.021v-.194h-.02v-.11h-.028v-.06h-.028v-.067h-.02v-.042h-.028v-.024h-.021v-.043h-.028l-.02-.018v-.024h-.028l-.02-.018v-.025h-.028v-.024h-.028l-.02-.018v-.024h-.028l-.02-.019v-.024h-.05v-.018h-.027v-.024h-.027l-.021-.019v-.024h-.028v-.024l-.02-.018h-.028v-.025h-.02v-.042h-.028l-.021-.018v-.024h-.028v-.043h-.027v-.024l-.021-.018h-.028v-.025h-.02v-.042h-.03l-.02-.018v-.025h-.028v-.024l-.021-.018h-.028v-.024h-.027l-.021-.019v-.024h-.028l-.02-.018v-.024h-.028v-.025l-.021-.018h-.028v-.024h-.027l-.02-.018v-.024h-.028l-.021-.019v-.024h-.028l-.02-.018v-.024h-.028v-.025l-.02-.018h-.028v-.024h-.028l-.02-.018v-.025h-.028l-.021-.018v-.024h-.028v-.024l-.02-.018h-.028v-.025h-.028l-.02-.018v-.042h-.028v-.025l-.02-.018h-.028v-.048l-.021-.019h-.028v-.042h-.02v-.024h-.028v-.043h-.028v-.024l-.02-.018h-.028v-.043h-.02v-.024h-.028l-.021-.018v-.025h-.028v-.018h-.027v-.024h-.021v-.024h-.028l-.02-.018v-.025h-.028v-.042h-.02v-.043h-.028l-.021-.018v-.048h-.028v-.019h-.027v-.042h-.02v-.043h-.028v-.024h-.021v-.024h-.028v-.043l-.02-.018h-.028v-.024h-.028v-.042l-.02-.019h-.028v-.024h-.02v-.024h-.028l-.021-.018v-.025h-.048v-.018h-.028v-.024h-.028v-.018h-.048v-.025h-.02v-.024h-.049v-.018h-.027v-.024h-.028v-.019h-.048v-.024h-.049v-.018h-.048v-.024h-.241v.024h-.055l-.021.018v.024h-.049v.019h-.027v.024l-.021.018h-.028v.024h-.027v.025l-.02.018h-.028v.024l-.021.018h-.028v.025l-.02.018h-.028v.024h-.02v.024h-.028v.043h-.028l-.02.018v.042h-.028v.043h-.021v.048h-.028v.043h-.02v.042h-.028v.019h-.028v.048l-.02.018h-.028v.043h-.02v.024h-.028l-.021.018v.025h-.028l-.02.018v.024h-.028v.024h-.027l-.021.019v.024h-.028l-.02.018v.024h-.028l-.021.018v.025h-.028v.018h-.027v.048l-.02.019h-.028v.024l-.021.018h-.028v.043h-.02v.024h-.028v.042h-.02v.025h-.028v.018h-.028v.042h-.02v.025h-.028l-.021.018v.024h-.028v.024l-.02.018h-.028v.025h-.028l-.02.018v.024h-.028l-.02.018v.025h-.028v.024l-.021.018h-.028v.024h-.02v.043h-.028v.018h-.027v.024l-.021.018h-.028v.049l-.02.018h-.028v.043h-.021v.042h-.028v.049h-.02v.042h-.028v.043h-.028l-.02.018v.042h-.028v.025h-.02v.024h-.028l-.021.018v.024h-.028v.019h-.027v.042h-.02v.024h-.028v.025l-.02.018h-.028v.024l-.02.018h-.028v.024l-.021.019h-.028v.024H42.1l-.021.018v.024h-.028v.025l-.02.018h-.028v.024l-.02.018h-.028v.025h-.028l-.02.018v.024h-.028l-.02.018v.024h-.028v.025l-.021.018h-.028v.024l-.02.018h-.028v.025h-.028v.042h-.02v.024h-.028l-.02.019v.024h-.028l-.021.018v.024h-.028v.019h-.027v.024l-.021.018h-.028v.024h-.02v.025h-.028l-.02.018v.024h-.028v.042l-.021.019h-.028v.024h-.027v.024h-.02v.043h-.028l-.021.018v.024h-.028l-.02.018v.025h-.028v.018h-.028v.024h-.02v.024h-.028l-.02.019v.024h-.049v.018h-.027v.024l-.021.018h-.028v.025H40.9v.024h-.027l-.021.018v.043h-.028v.024h-.02v.042h-.028v.043h-.028v.042h-.02v.067H40.7v.067h-.02v.042h-.028v.043l-.02.018h-.028v.042h-.021v.025h-.028v.024h-.027l-.02.018v.024h-.028l-.021.019v.024h-.028l-.02.018v.024h-.028v.025l-.02.018h-.028v.024h-.028l-.02.018v.025h-.028v.042l-.02.018h-.028v.024h-.021v.025h-.028v.042h-.027l-.02.018v.043h-.028v.024l-.021.018h-.028v.049l-.02.018h-.028v.024l-.02.019h-.028v.024h-.028l-.02.018v.024h-.028v.025l-.02.018h-.028v.024l-.02.018h-.028v.024h-.028l-.02.019v.024h-.028l-.02.018v.024h-.028v.043h-.021v.024h-.028v.043l-.02.018h-.028v.048h-.028v.043h-.02v.042h-.028v.043h-.02v.042h-.028v.043h-.02v.024h-.028v.018h-.028v.043h-.02v.024H39.3v.024l-.02.018h-.028v.025l-.02.018h-.028v.024l-.021.018h-.028v.025h-.027l-.02.018v.024h-.05v.024h-.027l-.02.019v.024h-.028v.018h-.028v.024l-.02.018h-.028v.025h-.02v.024h-.028v.042h-.02v.043h-.028l-.02.018v.043h-.028v.024h-.028v.042h-.02v.025h-.028l-.02.018v.042h-.029v.025l-.02.018h-.028v.048l-.02.018h-.028v.043h-.028v.024h-.02v.043h-.028v.024l-.02.018h-.028v.024l-.02.019h-.028v.024h-.028v.018h-.048v.024l-.02.019h-.05v.024h-.027v.024l-.02.018h-.028v.025h-.028l-.02.018v.024h-.028l-.02.018v.049h-.028v.042h-.02v.103h-.028v.091h.027v.085h.02v.067h.028l.021.018v.043h.028v.024h.02v.042h.028v.025h.028l.02.018v.024h.028l.02.018v.025h.028l.02.018v.024h.028v.024l.021.019h.028v.024h.027l.02.018v.024h.029l.02.019v.024h.028l.02.018v.024h.028v.024h.028l.02.019v.024h.028l.02.018v.024h.028l.02.019v.024h.028v.024l.02.018h.028v.025h.028l.02.018v.024h.028l.02.018v.025h.029l.02.018v.024h.028v.024l.02.018h.028v.025h.028l.02.018v.024h.028l.02.018v.025h.028l.02.018v.024h.028v.024h.028l.02.019v.024h.028l.02.018v.024h.028l.02.018v.025h.029v.024l.02.018h.028v.024h.027l.021.019v.024h.028l.02.018v.024h.028l.02.019v.024h.028v.024h.028l.02.018v.025h.028l.02.018v.024h.028l.02.018v.024h.028v.025l.021.018h.028v.024h.027l.02.018v.025h.028l.021.018v.024h.028l.02.018v.025h.028v.024h.027v.018h.049v.024l.02.018h.028v.025h.048v.018h.048v.024h.076v.024h.07v.019h.075v.024h.317v-.024h.049v-.019h.055v-.024h.02v-.024h.049v-.018h.027v-.025l.02-.018h.028v-.024h.028l.02-.018v-.024h.028v-.025l.021-.018h.028v-.024l.02-.018h.028v-.025l.02-.018h.028v-.024h.028v-.018h.048v-.025h.02v-.024h.028l.02-.018v-.024h.056l.02-.018v-.025h.028v-.018h.049v-.024h.02v-.024h.049v-.019h.027v-.024h.028l.02-.018v-.024h.028l.02-.019v-.024h.028l.021-.018v-.024h.028v-.025h.027l.02-.018v-.024h.029l.02-.018v-.024h.028v-.019h.048v-.024h.02v-.024h.029v-.018h.027v-.025h.048v-.018h.049v-.024l.02-.018h.056v-.025h.048v-.018h.048v-.024h.048v-.024h.049v-.018h.027v-.025l.02-.018h.05v-.024h.027l.02-.018v-.025h.028v-.018h.028V38.9h.02v-.024h.028l.02-.019v-.024h.028l.021-.018v-.024h.028l.02-.019v-.024h.028v-.024h.049v-.018h.027v-.024h.048v-.019h.049v-.024h.075v-.018h.118v-.024h.124v-.019h.076v-.024h.02v-.042h.028v-.025h.028l.02-.018v-.042h.028v-.025h.02v-.024h.028v-.042h.02v-.043h.028v-.018h.028v-.042h.02v-.025h.028v-.042h.021v-.024h.028l.02-.019v-.024h.049v-.018h.027v-.024h.049v-.025h.048v-.018h.076v-.024h.076v-.018h.048v-.025h.097v.043h-.028v.042h-.02v.049h-.028v.042h-.021v.043h-.028l-.02.018v.049h-.028l-.02.018v.024h-.028v.018h-.028v.025l-.02.018h-.028v.024h-.049l-.02.018v.024h-.056v.025l-.02.018h-.028v.024h-.048v.018h-.049v.025l-.02.018h-.056v.024h-.069v.024h-.048v.019h-.055v.024l-.02.018h-.029v.043h-.02v.024h-.028v.067h-.02v.042h-.028l-.02.018v.043h-.028v.024h-.028v.024l-.02.018h-.028v.025h-.049v.018h-.048v.024h-.048v.018h-.048v.025h-.049v.018h-.048v.024h-.027v.024h-.028l-.02.019v.024h-.028l-.021.018v.024h-.028l-.02.018v.025h-.028v.042h-.021v.024h-.028v.043h-.027l-.02.018v.043h-.029v.024h-.02v.024h-.028l-.02.018v.025h-.028v.018h-.048v.024h-.028v.018h-.048v.024h-.049l-.02.019v.024h-.056v.024l-.02.018h-.049v.025h-.027v.018h-.048v.024h-.028l-.02.018v.025h-.049v.024h-.027l-.021.018v.024h-.028l-.02.019v.024h-.028v.018h-.028v.042h-.02v.025h-.028v.024l-.02.018h-.028v.024l-.021.019h-.055v.024l-.02.018h-.029v.024h-.048v.025l-.02.018h-.049v.024h-.055v.018h-.048v.025h-.049v.018h-.048v.024h-.048v.018h-.028v.024h-.048v.025l-.02.018h-.028v.024h-.048v.018h-.028v.043h-.02v.024h-.028v.024l-.02.019h-.029v.042h-.02v.024h-.028v.043h-.027v.042h-.021v.043h-.028v.024l-.02.018h-.028v.024l-.02.019h-.049v.024h-.172v-.024h-.028l-.02-.019v-.024h-.028v-.018h-.028v-.024h-.02v-.043h-.028v-.042h-.02v-.043h-.028v-.024h-.02v-.042h-.028v-.043h-.028v-.024l-.02-.018h-.028v-.025l-.02-.018h-.029v-.024l-.02-.018h-.028v-.025h-.02v-.024h-.056v-.018h-.048v-.024h-.048v-.018h-.048v-.025h-.049v-.017h-.048v-.024h-.028l-.02-.018v-.025h-.028v-.024l-.02-.018h-.028v-.024h-.028v-.043l-.02-.018h-.028v-.024h-.02v-.025h-.028l-.02-.018v-.042h-.028v-.024h-.028l-.02-.019v-.024h-.028v-.018h-.048v-.024h-.021v-.025h-.028v-.018h-.048v-.024h-.048v-.018h-.048v-.025h-.049v-.018h-.027v-.024h-.049v-.024h-.027l-.02-.019v-.024h-.028v-.042l-.021-.018h-.028v-.043h-.02v-.048h-.028v-.043h-.027l-.021-.018v-.043h-.028v-.024h-.02v-.042h-.028v-.025l-.02-.018h-.028v-.024l-.02-.018h-.056v-.025l-.02-.018h-.028v-.024h-.02v-.024h-.05v-.019h-.027v-.024h-.048v-.018h-.028v-.024h-.048v-.018h-.048v-.025h-.048v-.018h-.028v-.024h-.02v-.024h-.049v-.019h-.028v-.024l-.02-.018h-.028v-.024h-.027l-.021-.019v-.024h-.028v-.024l-.02-.018h-.028v-.025l-.02-.018h-.028v-.024l-.021-.018h-.028v-.024h-.027l-.02-.019v-.024h-.05v-.024h-.027l-.02-.018v-.025h-.028v-.018h-.028v-.024h-.048l-.02-.018v-.025h-.049v-.024h-.027v-.018h-.049v-.024h-.027v-.018h-.049v-.025l-.02-.018h-.028v-.024l-.02-.018h-.056v-.025h-.02v-.024h-.028l-.02-.018v-.024h-.028l-.02-.019v-.025h-.028l-.021-.018v-.024h-.028v-.025h-.048v-.018h-.028v-.024l-.02-.018h-.048v-.024h-.028v-.019h-.048v-.024h-.049v-.018h-.075v-.024h-.076v-.025h-.097v-.018h-.145v-.024h-.151v-.018h-.07v-.025h-.048v-.018h-.048v-.024h-.055v-.024h-.069v-.019h-.048v-.024h-.104v-.018h-.268v-.024H35.3v-.018h-.097v-.025h-.124v-.018h-.103v-.024h-.097v-.024h-.048v-.019h-.048v-.024h-.049v-.018h-.048v-.024h-.048v-.019h-.048v-.024h-.056v-.024h-.069v-.018h-.075v-.025h-.076v-.018h-.145v-.024h-.145v-.018h-.103v-.024h-.049v-.019h-.048v-.024h-.048v-.024h-.048v-.018h-.076v-.025h-.097v-.018h-.172v-.024h-.145v-.018h-.103v-.025h-.118v-.018h-.172v-.024h-.103v-.024h-.07v-.018h-.048v-.025h-.055v-.018h-.048v-.024h-.048v-.018h-.097v-.025h-.172v-.024h-.738v-.018h-.124v-.024h-.096v-.019h-.173v-.024h-.269v-.017h-.096v-.024h-.097v-.018h-.103v-.025h-.07v.025h-.075v.018h-.028v.024l-.02.018h-.028v.067h-.02v.085h.02v.11h.028v.042h.02v.042h.028v.042h.02v.025h.028v.042h.028v.025l.02.018h.028v.024l.02.018h.028v.024l.021.019h.028v.024h.027l.02.018v.024h.028v.025l.021.018h.028v.024l.02.018h.028v.025l.02.018h.028v.048h.028l.02.018v.025h.028v.042l.02.018h.028v.043h.021v.024h.028v.043h.02v.042h.028v.024h.028l.02.019v.048h.028l.02.018v.043h.028v.024h.02v.043h.028v.042h.028v.043h.02v.042h.028v.024h.02v.043h.028v.024l.021.018h.028v.025l.02.018h.028v.024h.028l.02.018v.024h.028l.02.019v.024h.028v.042h.02v.025h.028v.018h.028v.024l.02.018h.028v.025h.02v.024h.029l.02.018v.024h.028l.02.018v.025h.028v.018h.028v.024h.02v.043h.028v.024h.02v.042h.028v.043l.02.018h.028v.049h.028v.042l.02.018h.028v.043h.021v.042h.028v.025h.02v.042h.028v.042h.02v.025h.028v.018h.028v.024l.02.018h.028v.025h.02v.024h.049v.018h.027v.024h.049v.019h.027v.024h.049l.02.018v.024h.028v.025l.02.018h.028v.024h.028l.02.018v.025h.028v.042l.02.018h.028v.049h.021v.042h.028v.043h.02v.042h.028v.024h.027l.021.019v.042h.028v.024l.02.019h.028v.024l.02.018h.028v.024h.028v.025h.048l.02.018v.024h.028l.021.018v.024h.028l.02.019v.024h.028v.024h.027l.021.018v.025h.028l.02.018v.024h.028l.02.018v.025h.028v.018h.028v.024h.02v.024h.028l.02.019v.024h.028l.021.018v.024h.028l.02.018v.025h.028v.024h.027l.021.018v.024h.028l.02.019v.024h.028l.02.018v.043h.028v.024h.028v.024h.02v.043h.028l.02.018v.042h.028v.043h.021v.024h.028v.042h.02v.025h.028v.042h.028l.02.018v.025h.028v.024h.02v.042h.028l.02.019v.024h.028v.018h.028v.043h.02v.048h.028v.06h.02v.134h.028v.103h.021v.091h.028v.043h.02v.042h.028v.025h.028v.042h.02v.043h.028v.042h.02v.043h.028v.042h.02v.067h.028v.042h.028v.067h.02v.042h.028l.02.019v.042h.029v.049l.02.018h.028v.042h.02v.043h.028v.048h.028v.043h.02v.06h.028v.092h.02v.06h.028v.085h.02v.049h.028v.06h.021v.043h.028v.024h.027v.043h.021v.042h.028v.043h.02v.024h.028v.067h.02v.06h.028v.11h.028v.175h.02v.085h.028v.067h.02v.043h.028l.02.018v.042h.029v.024h.02v.043h.028v.024h.027v.043h.021v.042h.028v.085h.02v.152h.028v.109h.02v.043h.028v.042h.028v.042h.02v.043h.028v.042h.02v.025h.028v.042h.021v.067h.028v.042h.02v.067h.028v.043h.027v.042h.021v.043h.028v.042h.02v.043h.028v.024h.02v.042h.028v.043h.028v.085h.02v.133h.028v.128h.02v.085h.028v.109h.021v.151h.028v.11h.02v.066h.028v.043h.027v.042l.021.019h.028v.024l.02.018h.028v.024h.02v.025h.028v.018h.028v.042h.02v.025h.028l.02.018v.024h.028l.021.018v.025h.028v.024l.02.018h.028v.024h.028l.02.018v.025h.028l.02.018v.024h.028v.025l.02.018h.028v.024l.021.018h.028v.024h.048v.019h.027v.024l.021.018h.048v.024h.056v.025h.048v.018h.048v.024h.07v.018h.075v.025h.048v.018h.028v.024h.048v.024h.028l.02.019v.024h.028l.02.018v.134l-.02.018h-.028v.024l-.02.018h-.028v.025h-.027l-.021.018v.024h-.028v.024h-.048l-.02.018v.025h-.028v.018h-.049v.024h-.027l-.02.018v.025h-.05v.018h-.027v.024h-.02v.024h-.056l-.02.019v.024h-.028v.018h-.048v.024l-.02.019h-.056v.024h-.048v.024h-.048v.018h-.049v.025h-.076v.018h-.069v.024h-.075v.018h-.097v.025h-.076v.018h-.076v.024h-.048v.024h-.048l-.02.019v.024h-.028l-.021.018v.024h-.028v.019h-.027v.024h-.021v.042h-.028v.043h-.02v.042h-.028v.091h-.02v4.793h-.028v.346h-.028v.607h.028v.17h.028v.067h.02v.042h.028v.043h.02v.048h.028v.043h.02v.042h.028v.06h.028v.067h.02v.953h-.02v.085h-.028v.043h-.027v.042h-.021v.024h-.048v.018h-.076v-.018h-.028v-.042h-.02v-.085h-.028v-.328h-.02v-.127h-.028v-.091h-.02v-.104h-.028v-.673h.027v-.947h-.027v-.09h-.021v-.061h-.028v-.043h-.027v-.048h-.021v-.042h-.028v-.043h-.02v-.042h-.028v-.322h.028v-.067h-.028v-.176h-.02v-.279h-.028v-.776h-.028v-.085h-.02v-.11h-.028v-.151h-.02v-.953h-.028v-.085h-.02v-.067h-.029v-.042h-.02v-.043h-.028v-.042h-.027v-.067h-.021v-.085H35.1v-.345h-.02v-.128h-.028v-.11h-.02v-.108h-.028v-.237h-.028v-.133h-.02v-.061h-.028v-.067h-.02v-.042h-.028v-.043h-.021v-.042h-.028v-.067h-.02v-.218h-.028v-.559h-.027v-.066h-.021v-.043h-.028v-.024l-.02-.018h-.028v-.025l-.02-.018h-.049v-.024h-.055v-.018h-.393v.018h-.097v.024h-.124v.018h-.903v-.018h-.124v-.024h-.103v-.018h-.118v-.024h-.151v-.025h-.07v-.018h-.048v-.024h-.027v-.018h.027v-.043h.021v-.024h.028v-.018h.048v-.025h.048v-.024h.049v-.018h.096v-.024h.172v-.019h.125v-.024h.075v-.018h.049v-.024h.069v-.025h.027v-.018h.048v-.024h.028v-.018h.048v-.025l.021-.018h.055v-.024l.02-.018h.028v-.025h.049v-.024l.02-.018h.049v-.024h.055l.02-.019v-.024h.049v-.018h.048v-.024h.055v-.025l.02-.018h.05v-.024h.027v-.018h.048v-.025h.048v-.018h.028v-.024h.048v-.018h.048v-.024h.021v-.025h.028v-.018h.048v-.024h.027l.021-.018v-.025h.028l.02-.018v-.024h.028l.02-.018v-.025h.028v-.024h.028l.02-.018v-.024h.028l.02-.019v-.024h.05v-.018h.027v-.024h.027v-.025l.021-.018h.048v-.024h.049v-.018h.075v-.025h.076v-.018h.048v-.025h.07v-.018h.055v-.024h.02v-.025h.049v-.018h.027v-.024l.02-.018h.056v-.025l.02-.018h.028v-.024h.02v-.024h.029l.02-.019v-.024h.028l.02-.018v-.024h.028v-.019h.028v-.042h.02v-.024h.028v-.025h.02v-.042h.028v-.042h.02v-.043h.028v-.218h-.027v-.043h-.02v-.042h-.028l-.021-.019v-.048h-.028l-.02-.018v-.043h-.028v-.024h-.028v-.043h-.02v-.066h-.028v-.06h-.02v-.068h-.028v-.042h-.02v-.043h-.028v-.042h-.021v-.024h-.028v-.043h-.027v-.024l-.02-.018H35.1v-.025l-.021-.018h-.028v-.024l-.02-.018h-.028v-.025h-.028l-.02-.018v-.024h-.028v-.042h-.02v-.025h-.028l-.02-.018v-.042h-.028v-.049h-.021v-.042h-.028v-.062h-.027v-.067h-.021v-.067h-.028v-.06h-.02v-.067h-.028v-.067h-.02v-.042h-.028v-.043h-.02v-.024h-.028v-.042h-.028l-.02-.019v-.024h-.028l-.02-.018v-.049h-.028l-.021-.018v-.024h-.028v-.018h-.027v-.025l-.021-.018h-.028v-.024l-.02-.018h-.028v-.024h-.02v-.025h-.028l-.02-.018v-.024h-.028v-.018h-.028v-.043h-.02v-.024h-.028v-.043h-.02v-.042h-.029v-.024h-.02v-.043h-.028v-.018h-.027v-.049h-.021v-.042h-.028l-.02-.018v-.043h-.028v-.024h-.02v-.042h-.028v-.043h-.02v-.024h-.028v-.043h-.028l-.02-.018v-.024H33.7v-.043h-.021v-.024h-.028l-.02-.018v-.024h-.028v-.019h-.027v-.022l-.021-.018h-.028v-.024h-.02v-.025h-.028l-.02-.018v-.024h-.028l-.02-.018v-.024h-.029v-.043h-.027v-.024l-.02-.018h-.028v-.043h-.021v-.024h-.028v-.043h-.02v-.042h-.028v-.024h-.028v-.043h-.02v-.042h-.028l-.02-.018v-.025h-.028v-.042h-.02v-.024h-.028v-.043l-.021-.018h-.028v-.043h-.027v-.048h-.02v-.06h-.028v-.043h-.021v-.049h-.028v-.042h-.02v-.043h-.028v-.042h-.028l-.02-.019v-.024h-.028v-.042h-.02v-.025h-.028l-.02-.018v-.024h-.028l-.021-.018v-.024h-.028v-.025h-.027l-.02-.018v-.024h-.028l-.021-.018v-.043h-.028v-.024l-.02-.018h-.028v-.049h-.02v-.042h-.028v-.061h-.028v-.043h-.02v-.066H32.3v-.067h-.02v-.042h-.028v-.043h-.021v-.042h-.028v-.025h-.027l-.021-.018v-.024h-.028l-.02-.018v-.049h-.028l-.02-.018v-.024h-.028l-.02-.019v-.024h-.028v-.018h-.028v-.024h-.02v-.025h-.028l-.02-.018v-.024h-.028l-.021-.018v-.024h-.028v-.019h-.027v-.024l-.021-.018h-.028v-.024h-.02v-.025h-.028l-.02-.018v-.024h-.028l-.02-.018v-.025h-.028v-.018h-.028v-.024h-.02v-.024h-.028v-.043l-.02-.018h-.029v-.042h-.02v-.067h-.028v-.067h-.027v-.06h-.021v-.05h-.028v-.042h-.02v-.042h-.028l-.02-.018v-.025h-.028l-.02-.018v-.024h-.028v-.024h-.028v-.018h-.048v-.025h-.049l-.02-.018v-.024h-.055v-.018h-.049v-.025l-.02-.018H30.9v-.024h-.02v-.024h-.028v-.043h-.02v-.06h-.028v-.067h-.028v-.067h-.02v-.06h-.028v-.05l-.021-.017h-.028v-.025l-.02-.018h-.028v-.042h-.02v-.025h-.028v-.024h-.028l-.02-.018v-.024h-.028v-.043l-.02-.018h-.028v-.042h-.02v-.049h-.029v-.018h-.027v-.043h-.02v-.042h-.028v-.024h-.021v-.043h-.028v-.024l-.02-.018h-.028v-.025l-.02-.018h-.028v-.024h-.028v-.043h-.02v-.024h-.028l-.02-.018v-.024h-.028l-.02-.019v-.024h-.028v-.018h-.028v-.024h-.02v-.043h-.028v-.024h-.021v-.042h-.028v-.043l-.02-.018h-.028v-.049h-.02v-.042h-.028v-.018h-.028v-.043h-.02v-.048h-.028l-.02-.019v-.042h-.028v-.043h-.02v-.066h-.028v-.043h-.028v-.042h-.02v-.067h-.028l-.021-.018v-.049H29.5l-.02-.018v-.042h-.028v-.025l-.02-.018h-.028v-.024h-.028v-.024l-.02-.019h-.028v-.024l-.02-.018h-.028v-.024l-.02-.018h-.028v-.025h-.028v-.042h-.02v-.024h-.028v-.043l-.021-.018h-.028v-.043h-.02v-.024h-.028v-.042h-.02v-.043h-.028v-.042h-.028v-.025h-.02v-.042h-.028v-.024l-.02-.019h-.028v-.024l-.02-.018h-.028v-.024h-.028v-.043h-.02v-.024h-.028l-.021-.018v-.024h-.028l-.02-.019v-.024h-.028l-.02-.018v-.024h-.028v-.019h-.028v-.024h-.048v-.024l-.02-.018h-.028v-.025l-.02-.018h-.028v-.024h-.049v-.018h-.048v-.024h-.048v-.025h-.076v-.018h-.172v-.024h-.27v-.018h-.096v-.025h-.076v-.018h-.048v-.024h-.048v-.018h-.049v-.025h-.055v-.024h-.048v-.018h-.048v-.024h-.049v-.019h-.048v-.024h-.076v-.018h-.124v-.024h-.096v-.018h-.07v-.027H26.8v-.024h-.049v-.018h-.048v-.024l-.02-.019h-.049v-.024h-.027v-.018h-.028v-.024h-.048v-.025l-.021-.018h-.048v-.024h-.055v-.018h-.049v-.025h-.048v-.018h-.069v-.024h-.076v-.018h-.048v-.024h-.048v-.025h-.055l-.021-.018v-.024h-.048v-.018h-.028v-.025h-.048l-.02-.018v-.024h-.056v-.024h-.048l-.021-.019v-.024h-.048v-.018h-.056v-.024l-.02-.018h-.048v-.025h-.049v-.018h-.048v-.024H25.4v-.024h-.07v-.019h-.2v-.024h-.413v-.018h-.124v-.024h-.096v-.019h-.076v-.024h-.097v-.024h-.048v-.018H24.2v-.025h-.027v-.018h-.049v-.024h-.048l-.02-.018v-.025h-.028v-.018H24v-.024h-.02v-.085H24v-.024h.028v-.018h.076v-.025h.317v-.024h.124v-.018h.069v-.024h.055v-.019h.048v-.024l.02-.018h.05v-.024h.027l.02-.018v-.049h.028v-.018h.028v-.024h.02v-.043h.028v-.042h.02v-.043h.028v-.042h.02v-.043h.028v-.024h.028v-.043h.02v-.024h.028l.02-.018v-.024h.028v-.043l.021-.018h.028v-.024l.02-.019h.028v-.024h.028v-.042h.02v-.025h.028l.02-.018v-.042h.028v-.024h.02v-.043h.028v-.024h.028v-.043h.02v-.042h.028l.02-.018v-.049h.028v-.042h.021v-.043h.028v-.042h.02v-.043h.028v-.024h.028l.02-.018v-.025h.028v-.042l.02-.018h.028v-.024h.02v-.043h.028V32.7h.028v-.043h.02v-.11h.028v-.563h-.027v-.11h-.021v-.06h-.028v-.043h-.027v-.048h-.02v-.043h-.028v-.042h-.021v-.06h-.028v-.134h-.02v-.17h-.028v-.175h.028l.02-.018v-.025h.049v.025h.048v.018h.055v.024l.02.018h.028v.024h.048l.021.019v.024h.028v.024h.048v.018h.028v.025h.048l.02.018v.024h.049v.018h.027v.025h.028l.02.018v.024h.028v.024h.02v.043h.029l.02.018v.042h.028v.025h.02v.042h.028v.024h.028l.02.019v.024h.028l.02.018v.024h.028l.02.019v.024h.056v.024l.02.018h.028v.025h.049v.018h.048v.024l.02.018h.056v.024h.02v.025h.028l.02.018v.024h.028v.043l.02.018h.028v.042h.021v.025h.028v.042h.027v.024l.02.019h.029v.042h.02v.024h.028l.02.019v.024h.028v.024h.028l.02.018v.025h.028l.02.018v.024h.028l.02.018v.024h.028v.025l.021.018h.028v.024h.027l.02.018v.025h.029v.018h.048v.024l.02.018h.056v.025h.02v.024h.049v.018h.048v.024h.027v.018h.049v.025h.048v.018h.028v.024h.02v.024h.048v.019h.028v.024h.028l.02.018v.024h.028l.02.019v.024h.028v.042h.02v.025h.028v.042h.021v.043h.028v.042h.027v.042h.02v.025h.029l.02.018v.024h.028l.02.018v.025h.028v.018h.028v.024h.048v.024h.048v.019h.097v.024h.958v-.024h.097v-.019h.048v-.024h.048v-.024h.028v-.018h.048v-.025h.028l.02-.018v-.024h.048v-.018h.028v-.025h.048v-.018h.076v-.024h.07v-.024h.103v-.018h.048v-.025h.048v-.018h.048v-.024h.049v-.018h.027v-.025h.048v-.024l.021-.018h.055v-.024h.049v-.019h.069v-.024h.172v-.018h1.158v-.024h.07v-.018h.075v-.025h.028v-.024h.048v-.018h.048v-.024l.02-.019h.056v-.024l.02-.018h.049v-.024h.048v-.025h.104v-.018h.117v-.024h.103v-.018h.07v-.025h.075v-.018h.048v-.024h.049v-.018h.048v-.024h.048v-.025h.055l.021-.018v-.024h.048v-.018h.049v-.025h.027v-.018h.028v-.024h.02v-.024h.028l.02-.019v-.024h.028v-.042l.02-.019h.028v-.042h.021v-.049h.028v-.042h.027v-.043h.021v-.042h.028V31.9h.02v-.067h.028v-.043h.02v-.066h.028v-.085h.028v-.085h.02v-.085h.028v-.134h.02v-.388h.028v-.085h.021v-.067h.028v-.042h.02v-.043h.028v-.024h.027v-.042h.021v-.061h.028v-.067h.02v-.085h.028v-.09h.02v-.086h.028v-.473h-.027v-.067h-.021v-.042h-.028v-.043h-.02v-.024h-.028l-.02-.018v-.024h-.028v-.019h-.048v-.024h-.028v-.018h-.048v-.024h-.021v-.025h-.048v-.018h-.028v-.024h-.027v-.018h-.05v-.025l-.02-.018h-.028v-.024l-.02-.018h-.028v-.024h-.028v-.025h-.048l-.02-.018v-.024h-.05v-.019h-.027v-.025h-.048v-.018h-.028v-.024h-.048v-.024l-.02-.019h-.028v-.024h-.048v-.018h-.028v-.024l-.02-.018h-.028v-.025h-.048l-.021-.018v-.024h-.048v-.024h-.104v-.019h-.172v-.024h-.145v-.018h-.048v-.024H32.5v-.019h-.048v-.024h-.027v-.024h-.049v-.018h-.027v-.025H32.3l-.021-.018v-.024h-.048v-.018h-.028v-.025h-.048v-.018h-.049v-.024h-.027v-.024h-.048v-.018h-.049v-.025h-.027v-.018h-.049v-.024h-.048v-.018h-.048v-.025h-.048v-.018h-.076v-.023h-.07v-.024h-.123v-.019h-.152v-.024h-.117v-.018h-.076v-.024H31.1v-.018h-.049v-.025h-.055v-.024h-.048v-.018h-.069v-.024h-.076v-.019h-.076v-.024h-.096v-.018h-.076v-.024h-.069v-.019h-.048v-.024h-.055v-.024h-.049v-.018h-.048v-.025h-.048v-.018h-.048v-.024h-.049v-.018h-.048v-.024h-.076v-.025h-.076v-.018h-.069v-.024h-.075v-.018h-.076v-.025h-.049v-.018h-.048v-.024h-.048v-.018h-.048v-.025H29.5v-.024h-.048v-.018h-.049v-.024h-.027v-.019h-.048v-.023h-.049l-.02-.018v-.024h-.056v-.024l-.02-.019h-.028v-.024h-.048l-.02-.018v-.024h-.028l-.021-.019v-.024h-.028v-.018h-.027v-.024h-.048v-.025h-.49v-.018h-.096v-.024h-.125v-.018h-.248v-.025h-.145v-.018h-.075v-.024h-.049v-.024l-.02-.018h-.049v-.025h-.055v-.018h-.048v-.024l-.02-.018h-.049v-.025h-.055l-.02-.018v-.024h-.05v-.024h-.027v-.019h-.048v-.024l-.02-.018h-.028v-.024h-.049v-.018h-.048v-.025h-.048v-.024h-.055v-.018h-.048v-.024h-.07v-.019h-.048v-.024h-.055v-.018h-.048v-.024h-.048l-.021-.019v-.024h-.048v-.024h-.056l-.02-.018v-.025h-.048v-.018h-.076v-.024h-.097v-.018h-.22v-.024h-.076v-.021h-.049v-.024h-.048v-.024h-.027v-.018h-.049v-.025l-.02-.018h-.028v-.024h-.028v-.018h-.048v-.025h-.02v-.024h-.049v-.018h-.055v-.024h-.069v-.019h-.048v-.024h-.076v-.018h-.048v-.024h-.049v-.018h-.048v-.025h-.027v-.024h-.049v-.018h-.048v-.024h-.048v-.019h-.076v-.024h-.097v-.018h-.124v-.024h-.124v-.025h-.096v-.018h-.124v-.024h-.125v-.018h-.068v-.025h-.076v-.018h-.049v-.024h-.048v-.018h-.048v-.024h-.104v-.025h-.22zm15.52 1.384v.024h-.096v.018h-.049v.024h-.027v.025l-.021.018h-.048v.024h-.028v.018h-.027v.043h-.021v.024h-.028v.042h-.02v.085h-.028v.091h-.02v.043h-.028v.06h-.02v.025h-.028v.042h-.028v.025l-.02.018h-.028v.042h-.02v.025h-.028v.042h-.021v.043h-.028v.042h-.02v.067h-.028v.042h-.027v.043h-.021v.066h-.028v.043h-.02v.024h-.028v.043h-.02v.042h-.028v.043h-.028v.042h-.02v.024h-.028v.043h-.02v.042h-.028v.043h-.021v.042h-.028v.025l-.02.018h-.028v.024h-.027l-.021.018v.024h-.028l-.02.019v.024h-.028v.042h-.02v.025h-.028v.018h-.028v.042h-.02v.025h-.028v.042h-.02v.024h-.028v.043h-.021v.042h-.028l-.02.018v.025h-.028v.042h-.027v.024l-.021.019h-.028v.042h-.02v.024h-.028v.043h-.02v.042h-.028v.025h-.028v.042h-.02v.043h-.028v.024h-.02v.042h-.028l-.021.019v.024h-.028v.042h-.02v.025h-.028v.042h-.028l-.02.018v.043h-.028v.024h-.02v.042h-.028v.043h-.02v.024h-.028v.018h-.028v.043h-.02v.024h-.028v.024l-.02.019h-.028v.024l-.021.018h-.028v.024h-.02v.043h-.028v.018h-.028v.024h-.02v.025h-.028l-.02.018v.024h-.028v.042h-.02v.043h-.028v.042h-.028v.043h-.02v.085h-.028v.09h-.02v.062h-.029v.066h-.02v.043h-.028v.042h-.02v.043h-.028v.048h-.028l-.02.018v.025h-.028v.042l-.02.018h-.028v.043h-.02v.024h-.028v.043h-.021v.042h-.028v.024h-.027v.043h-.021v.024h-.028v.043l-.02.018h-.028v.024h-.02v.042h-.028v.019h-.028v.048l-.02.018h-.028v.043h-.02v.042h-.028v.049h-.02v.06h-.029v.067h-.02v.067h-.028v.043h-.027l-.021.018v.042h-.028v.024h-.02v.025h-.028l-.02.018v.024h-.028v.018h-.028v.025l-.02.018h-.028v.024h-.02v.043h-.028v.024l-.021.018h-.028v.043h-.02v.024h-.028v.042h-.027v.043h-.021v.042h-.028v.025h-.02v.042h-.028l-.02.018v.049h-.028v.018h-.028v.024l-.02.018h-.028v.043h-.02v.024h-.028v.043h-.021v.042h-.028v.067h-.02v.085h-.028v.067h-.027v.042h-.021v.042h-.028v.025l-.02.018h-.028v.024l-.02.018h-.028v.043h-.028v.024h-.02v.024h-.028l-.02.019v.042h-.028v.024h-.021v.043h-.028l-.02.018v.049h-.028v.042h-.028l-.02.018v.025h-.028v.042h-.02v.024h-.028l-.02.018v.025h-.028l-.021.018v.024h-.028v.018h-.027v.025l-.02.018h-.028v.024h-.021v.043h-.028v.024l-.02.018h-.028v.043h-.028v.024h-.02v.042h-.028v.043h-.02v.042h-.028v.024h-.02v.043h-.028v.024h-.021v.043h-.028v.018h-.027v.024l-.02.018h-.029v.025h-.02v.042h-.028v.024h-.02v.043h-.028v.018h-.028v.043h-.02v.048h-.028l-.02.018v.043h-.028v.024l-.02.018h-.028v.043h-.021v.024h-.028v.024h-.027l-.021.018v.025h-.028v.042l-.02.018h-.028v.049h-.02v.042h-.028v.043h-.028v.06h-.02v.067h-.028v.067h-.02v.042h-.028v.025h-.02v.042h-.028l-.021.018v.025h-.028v.018h-.027v.024l-.021.018h-.028v.025h-.02v.024h-.028l-.02.018v.043h-.028v.024h-.028l-.02.018v.049h-.028l-.02.018v.042h-.028v.067h-.021v.085h-.028v.085h.028v.09h.02v.043h.028l.021.019v.024h.028l.02.018v.024h.028v.025h.027l.021.018v.024h.048v.018h.049v.024h.055v.019h.048v.024h.048v.018h.07v.024h.054v.025h.049v.018h.048v.024h.048v.018h.028v.025h.048v.018h.048v.024h.049v.024l.02.019h.055v.024h.049v.018h.048v.024h.048v.018h.028v.025l.02.018h.049v.024h.027v.024l.021.019h.028v.024h.048v.018h.028v.024h.048v.019h.048v.024h.048v.024h.049v.018h.075v.025h.097v.018h.076v.024h.069v.018h.076v.024h.048v.019h.027v.024h.049v.024l.02.018h.056v.025l.02.018h.049v.024h.027v.018h.048v.025h.049v.024h.027v.018h.049v.024h.048l.02.018v.025h.056v.018h.048v.024h.069v.018h.076v.025h.317v.024h.152v.018h.048v.024h.048v.019h.028v.024h.048l.02.018v.024h.028l.02.018v.025h.05v.024h.027v.018h.048v.024h.028v.019h.048v.024h.048l.02.018v.024h.056v.025l.02.018h.049v.024h.027v.018h.049v.025h.027v.018h.049v.024h.069v.018h.103v.025h.172v-.025h.097v-.018h.048v-.024h.048v-.018h.049v-.025h.027l.021-.018v-.024h.028l.02-.018v-.025h.028v-.024h.027l.021-.018v-.024h.028v-.043l.02-.018h.028v-.024h.02v-.043h.028v-.023l.02-.018h.029v-.024h.027l.02-.019v-.024h.049v-.018h.028v-.024h.02v-.025h.055l.021-.018v-.024h.028v-.018h.048v-.025l.02-.018h.028v-.024l.021-.018h.028v-.024h.027v-.025l.02-.018h.028v-.024l.021-.018h.028v-.025l.02-.018h.028v-.024h.027v-.024l.021-.019h.028v-.024l.02-.018h.028v-.024h.02v-.043h.028l.02-.018v-.024h.028v-.043h.028v-.024h.02v-.042h.028l.02-.019v-.024h.028v-.042h.021v-.025h.028l.02-.018v-.042h.028v-.025h.027v-.042h.021v-.024h.028v-.043l.02-.018h.028v-.024l.02-.018h.028v-.025h.028v-.024l.02-.018h.028v-.024h.048l.02-.019v-.024h.05v-.018h.027v-.024h.027l.021-.019v-.024h.028v-.024l.02-.018h.028v-.025h.02v-.042h.028v-.043h.028v-.042h.02v-.043h.028v-.066h.02v-.043h.028v-.042h.02v-.043h.028v-.042h.021v-.024h.028v-.044h.027v-.024l.02-.018h.028v-.025l.021-.018h.028v-.024l.02-.018h.028v-.025h.027v-.024l.021-.018h.028v-.024l.02-.018h.028v-.025h.02v-.042h.028l.02-.018v-.025h.028v-.024h.028l.02-.018v-.043h.028v-.024h.02v-.042h.028v-.043h.021v-.042h.028v-.043h.027v-.042h.021v-.025h.028v-.042h.02v-.024h.028l.02-.018v-.025h.028v-.042h.02v-.024h.028v-.019h.028v-.024l.02-.018h.028v-.024l.02-.019h.028v-.024l.021-.018h.028v-.024h.02v-.025h.028v-.018h.028v-.024l.02-.018h.028v-.025l.02-.018h.028v-.024h.02v-.024h.028v-.018h.028v-.025l.02-.018h.028v-.042h.02v-.025h.028l.021-.018v-.048h.028l.02-.019v-.024h.028v-.042h.028l.02-.019v-.024h.028v-.024h.02v-.043h.028l.02-.018v-.024h.028v-.018h.028v-.024l.02-.019h.028v-.048l.021-.018h.028v-.043h.02v-.042h.028v-.044h.02v-.048h.028v-.043h.028l.02-.018v-.043h.028v-.024h.02v-.042h.028v-.025l.021-.018h.028v-.024h.027l.02-.018v-.024h.028l.021-.019v-.024h.028v-.024h.02v-.043h.028l.02-.018v-.024h.028v-.018h.028v-.049l.02-.018h.028v-.024h.021v-.043h.028l.02-.018v-.024h.028v-.043h.028v-.024l.02-.018h.028v-.024l.02-.019h.028v-.024l.021-.018h.028v-.024h.02v-.025h.028v-.018h.028v-.024l.02-.018h.028v-.025h.02v-.042h.028l.021-.018v-.025h.028v-.024h.027l.02-.018v-.042h.028v-.043h.021v-.048h.028v-.043h.02v-.042h.028v-.061h.02v-.067h.028v-.067h.028v-.06h.02v-.049h.028v-.042l.021-.018h.028v-.025l.02-.018h.028v-.048l.02-.019h.028v-.024h.028l.02-.018v-.024h.028v-.043l.021-.018h.028v-.049h.02v-.042h.028v-.018h.028v-.043h.02v-.048h.028l.02-.019v-.042h.028v-.042h.021v-.043h.028v-.049h.02v-.042h.028v-.06h.028v-.05h.02v-.042h.028v-.042h.02v-.043h.028v-.042h.021v-.043h.028v-.024h.027v-.042h.021v-.043h.028v-.042h.02v-.043h.028v-.042h.02v-.067h.028v-.067h.021v-.06h.028v-.11h.027v-.024h-.027v-.11h-.028v-.042h-.02v-.042h-.028l-.02-.018v-.042h-.029v-.048h-.02v-.043h-.028v-.042h-.02v-.067h-.028v-.018h-.028v-.043h-.02v-.024h-.028l-.02-.018v-.024h-.029l-.02-.019v-.024h-.028v-.024h-.028v-.018h-.048v-.025h-.048v-.018h-.048v-.024h-.049v-.018h-.048v-.024h-.028v-.025h-.048l-.02-.018v-.024h-.028v-.018h-.048v-.025h-.028l-.02-.018v-.024h-.028l-.021-.018v-.025h-.028v-.024l-.02-.018h-.028v-.024h-.028l-.02-.018v-.025h-.028l-.02-.018v-.024h-.028v-.024l-.021-.019h-.028v-.024l-.02-.018h-.028v-.024h-.048v-.019h-.028v-.024h-.048l-.02-.018v-.024h-.056v-.025h-.07v-.018h-.048v-.024h-.027v-.018h-.048v-.024h-.028l-.02-.019v-.024h-.028v-.024h-.021v-.043h-.028l-.02-.018v-.042h-.028v-.025h-.028l-.02-.018v-.024h-.028v-.043h-.02v-.024h-.028v-.018h-.048v-.024l-.021-.018h-.028v-.025h-.027v-.018h-.049v-.023h-.02v-.024h-.049v-.019h-.027v-.024h-.048v-.018h-.028v-.024l-.02-.019h-.028v-.024h-.02v-.024h-.029l-.02-.018v-.025h-.028v-.018h-.027v-.024l-.021-.018h-.028v-.025l-.02-.018h-.028v-.024h-.02v-.024h-.028v-.018h-.028v-.025l-.02-.018h-.028v-.024l-.02-.018h-.028v-.027h-.021v-.024h-.048v-.018h-.056v-.024h-.048v-.019h-.048v-.024h-.076v-.018h-.048v-.024h-.048v-.018h-.05v-.025h-.048v-.024h-.048v-.018h-.049v-.024h-.048v-.019h-.048v-.024h-.055v-.018h-.049v-.024h-.02v-.025h-.028v-.018h-.048v-.024h-.028l-.02-.018v-.025h-.028l-.02-.018v-.024h-.049v-.018h-.028v-.024h-.048v-.025h-.028v-.018h-.068v-.024h-.049v-.018h-.076v-.025h-.075v-.018h-.07v-.024h-.055v-.024h-.068v-.019h-.104v-.024h-.096zm-6.136 6.012v.019h-.076v.024h-.076v.018h-.069v.024h-.048v.019h-.104v.024h-.144v.018H32.3v.024h-.096v.024h-.076v.019h-.048v.024h-.049v.018h-.048v.024h-.076v.019h-.048v.024h-.097v.024h-.096v.018h-.104v.025h-.096v.018H30.9v.024h-.193v.018h-.076v.025h-.049v.018h-.075v.024h-.049v.024h-.048v.018h-.076v.025h-.117v.018h-.2v.024h-.096v.018h-.076v.025h-.049v.018h-.048v.024H29.7v.024h-.048v.019h-.056v.024l-.02.018h-.049v.024h-.048v.018h-.048v.025h-.076v.024h-.048v.018h-.104v.024h-.069v.019h-.075v.024h-.076v.018h-.07v.024h-.047v.019h-.056v.024h-.048v.024h-.048v.018h-.048v.025h-.076v.018h-.049v.024h-.048v.018h-.048v.024h-.02v.025h-.028v.018h-.028v.042h-.02v.134h.02v.042h.028v.019h.027v.024l.02.018h.028v.024h.021v.025h.028v.018h.048v.024l.02.018h.056v.024l.02.019h.049v.024h.027l.021.018v.024h.048v.025h.028v.018h.048v.024h.028v.018h.048v.025h.076v.018h.048v.024h.07v.024h.103v.019h.068v.024h.104v.018h.048v.024h.048v.018h.049v.025h.048v.018h.028v.024h.048v.024h.048l.02.019v.024h.056v.018h.048v.024l.02.019h.05v.024h.027v.024l.02.018h.056v.025l.02.018h.049v.024h.027v.018h.048v.024h.049v.019h.027v.024h.048v.024l.021.018h.048v.025h.028v.018h.028v.024h.048l.02.018v.025h.028l.02.018v.024h.028v.024h.049v.018h.048v.025h.048v.018h.048v.024h.324v-.024h.07v-.018h.055v-.025h.048l.02-.018v-.024h.028v-.024l.02-.018h.05v-.025h.027v-.018h.027v-.024l.02-.018h.029v-.025h.048l.02-.018v-.024h.028v-.024h.028v-.043l.02-.018h.028v-.043h.02v-.042h.028v-.049h.02v-.06h.028v-.043h.021v-.048h.028v-.043h.027l.021-.018v-.042h.028v-.043h.02v-.048h.028v-.043h.02v-.042h.028v-.043h.028v-.067h.02v-.042h.028v-.043h.02v-.042h.028v-.043h.02v-.042h.029v-.024h.02v-.043h.028v-.042h.027v-.024h.021v-.043h.028l.02-.018v-.024h.028l.02-.019v-.024h.028v-.024h.048v-.018h.076v-.025h.07v-.018h.103v-.024h.069v-.018h.075v-.025h.049v-.024h.048v-.018h.028v-.024l.02-.018h.055v-.026l.021-.018h.028v-.042h.02v-.025h.028v-.024h.02v-.042h.028v-.043h.02v-.042h.029v-.043h.027v-.067h.02v-.042h.028v-.043h.021v-.042h.028v-.067h.02v-.042h.028v-.067h.028v-.151h-.028v-.042h-.028v-.043l-.02-.018h-.049v-.024h-.048v-.018h-.124z"/><path fill="#fff" d="M43.885 44.387s-3.4-3.208-3.396-3.635c.004-.427 3.616-2.615 3.616-2.615l.291-.364 1.035.237z"/><path fill="#fff" d="M43.885 44.387l.125-.028 1.475-6.284-.054-.065-1.035-.237-.221.186-.588 1.463z"/><path d="M45.604 38.025l-1.24-.23.076-.278 1.187-.31z"/><path fill="#020101" fill-opacity=".99" d="M39.751 41.363l1.071-.8s2.61 3.45 3.196 3.288c.586-.16-.116 1.313-.116 1.313z"/><path fill="#020101" fill-opacity=".99" stroke="#000" stroke-width=".265" d="M40.632 40.719l4.26-3.09-.305-.047-.742.432-3.382 2.56.079.208z"/><path fill="#840101" d="M40.409 40.823s3.492 3.696 3.243 4.15c-.248.456-4.175-3.16-4.175-3.16l.058-.754z"/><path fill="#fff" fill-opacity=".99" d="M44.239 44.446l-.077-.011-.37-.656.56.083z"/></g></g></svg>
